<svg width="21" height="166" viewBox="0 0 21 166" fill="none" xmlns="http://www.w3.org/2000/svg">
<path d="M16.14 160.53C16.14 161.669 15.86 162.644 15.3 163.456C14.74 164.259 13.8953 164.744 12.766 164.912V163.61C13.55 163.451 14.1193 163.083 14.474 162.504C14.8193 161.916 14.992 161.239 14.992 160.474C14.992 159.709 14.8333 159.121 14.516 158.71C14.1987 158.29 13.7273 158.08 13.102 158.08C12.626 158.08 12.2527 158.211 11.982 158.472C11.702 158.733 11.4967 159.06 11.366 159.452C11.226 159.844 11.086 160.371 10.946 161.034C10.7873 161.781 10.6287 162.383 10.47 162.84C10.302 163.297 10.0313 163.685 9.658 164.002C9.28467 164.319 8.77133 164.478 8.118 164.478C7.52067 164.478 7.00267 164.333 6.564 164.044C6.116 163.745 5.77533 163.335 5.542 162.812C5.29933 162.28 5.178 161.669 5.178 160.978C5.178 159.998 5.43467 159.149 5.948 158.43C6.452 157.711 7.222 157.268 8.258 157.1V158.346C7.57667 158.486 7.08667 158.799 6.788 159.284C6.48 159.769 6.326 160.339 6.326 160.992C6.326 161.701 6.47533 162.247 6.774 162.63C7.07267 163.003 7.48333 163.19 8.006 163.19C8.41667 163.19 8.74333 163.073 8.986 162.84C9.21933 162.597 9.39667 162.299 9.518 161.944C9.63933 161.58 9.76533 161.085 9.896 160.46C10.064 159.667 10.2413 159.027 10.428 158.542C10.6053 158.057 10.8993 157.646 11.31 157.31C11.7207 156.965 12.29 156.792 13.018 156.792C13.9793 156.792 14.74 157.119 15.3 157.772C15.86 158.416 16.14 159.335 16.14 160.53ZM16.14 146.616C16.14 147.344 15.9673 147.993 15.622 148.562C15.2767 149.131 14.796 149.575 14.18 149.892C13.564 150.209 12.8687 150.368 12.094 150.368C11.338 150.368 10.6567 150.209 10.05 149.892C9.44333 149.575 8.972 149.131 8.636 148.562C8.29067 147.993 8.118 147.344 8.118 146.616C8.118 145.748 8.342 145.015 8.79 144.418C9.22867 143.811 9.826 143.419 10.582 143.242V144.516C10.1527 144.665 9.812 144.931 9.56 145.314C9.29867 145.687 9.168 146.121 9.168 146.616C9.168 147.101 9.294 147.54 9.546 147.932C9.798 148.315 10.148 148.618 10.596 148.842C11.0347 149.066 11.534 149.178 12.094 149.178C12.6727 149.178 13.1907 149.071 13.648 148.856C14.096 148.632 14.4507 148.324 14.712 147.932C14.964 147.54 15.09 147.101 15.09 146.616C15.09 146.084 14.9453 145.627 14.656 145.244C14.3667 144.852 13.984 144.591 13.508 144.46V143.186C14.3293 143.354 14.9733 143.751 15.44 144.376C15.9067 144.992 16.14 145.739 16.14 146.616ZM8.258 136.584V135.394H8.762C8.89267 135.394 9.00467 135.408 9.098 135.436C9.182 135.455 9.266 135.497 9.35 135.562L9.476 135.366C9 135.049 8.65467 134.699 8.44 134.316C8.22533 133.924 8.118 133.439 8.118 132.86V132.804H9.308V133.21C9.308 133.836 9.49467 134.335 9.868 134.708C10.3067 135.166 10.9927 135.394 11.926 135.394H16L16 136.584H8.258ZM16.14 123.301C16.14 124.029 15.9673 124.682 15.622 125.261C15.2767 125.83 14.796 126.278 14.18 126.605C13.564 126.922 12.8687 127.081 12.094 127.081C11.338 127.081 10.6567 126.922 10.05 126.605C9.44333 126.278 8.972 125.83 8.636 125.261C8.29067 124.682 8.118 124.029 8.118 123.301C8.118 122.573 8.29067 121.92 8.636 121.341C8.972 120.762 9.44333 120.31 10.05 119.983C10.6567 119.656 11.338 119.493 12.094 119.493C12.8687 119.493 13.564 119.656 14.18 119.983C14.7867 120.3 15.2673 120.748 15.622 121.327C15.9673 121.906 16.14 122.564 16.14 123.301ZM15.09 123.301C15.09 122.816 14.9593 122.377 14.698 121.985C14.4367 121.584 14.082 121.271 13.634 121.047C13.1767 120.814 12.6633 120.697 12.094 120.697C11.5527 120.697 11.058 120.809 10.61 121.033C10.162 121.257 9.812 121.57 9.56 121.971C9.29867 122.363 9.168 122.806 9.168 123.301C9.168 123.786 9.294 124.23 9.546 124.631C9.798 125.023 10.148 125.331 10.596 125.555C11.044 125.779 11.5433 125.891 12.094 125.891C12.6633 125.891 13.1767 125.779 13.634 125.555C14.0913 125.331 14.4507 125.023 14.712 124.631C14.964 124.23 15.09 123.786 15.09 123.301ZM16 110.972C16 111.597 15.86 112.059 15.58 112.358C15.3 112.656 14.7913 112.806 14.054 112.806H5.318V111.616H13.872C14.1427 111.616 14.3527 111.597 14.502 111.56C14.642 111.522 14.754 111.438 14.838 111.308C14.9127 111.177 14.95 110.972 14.95 110.692V110.314H16V110.972ZM16 102.049C16 102.674 15.86 103.136 15.58 103.435C15.3 103.733 14.7913 103.883 14.054 103.883H5.318V102.693H13.872C14.1427 102.693 14.3527 102.674 14.502 102.637C14.642 102.599 14.754 102.515 14.838 102.385C14.9127 102.254 14.95 102.049 14.95 101.769V101.391H16V102.049ZM16.14 81.9922C16.14 83.3082 15.804 84.2975 15.132 84.9602C14.46 85.6229 13.5173 85.9542 12.304 85.9542H5.318L5.318 84.6662H12.304C13.1627 84.6662 13.8253 84.4469 14.292 84.0082C14.7587 83.5695 14.992 82.8975 14.992 81.9922C14.992 81.0869 14.7587 80.4149 14.292 79.9762C13.8253 79.5375 13.1627 79.3182 12.304 79.3182H5.318V78.0302H12.304C13.5173 78.0302 14.46 78.3615 15.132 79.0242C15.804 79.6869 16.14 80.6762 16.14 81.9922ZM8.118 67.2371C8.118 66.5557 8.286 65.9537 8.622 65.4311C8.958 64.9084 9.42933 64.5071 10.036 64.2271C10.6427 63.9377 11.338 63.7931 12.122 63.7931C12.906 63.7931 13.606 63.9377 14.222 64.2271C14.8287 64.5071 15.3 64.9084 15.636 65.4311C15.972 65.9444 16.14 66.5464 16.14 67.2371C16.14 67.8064 16.0373 68.2777 15.832 68.6511C15.6267 69.0151 15.2767 69.3791 14.782 69.7431L14.908 69.9391C14.992 69.8737 15.0807 69.8317 15.174 69.8131C15.258 69.7851 15.3653 69.7711 15.496 69.7711H18.94V70.9611H8.258V69.7711H8.762C8.89267 69.7711 9.00467 69.7851 9.098 69.8131C9.182 69.8317 9.266 69.8737 9.35 69.9391L9.476 69.7431C8.98133 69.3791 8.63133 69.0151 8.426 68.6511C8.22067 68.2777 8.118 67.8064 8.118 67.2371ZM9.168 67.3491C9.168 67.8251 9.294 68.2497 9.546 68.6231C9.798 68.9964 10.1527 69.2904 10.61 69.5051C11.058 69.7104 11.562 69.8131 12.122 69.8131C12.6913 69.8131 13.2 69.7104 13.648 69.5051C14.096 69.2904 14.4507 68.9964 14.712 68.6231C14.964 68.2497 15.09 67.8251 15.09 67.3491C15.09 66.8731 14.964 66.4577 14.712 66.1031C14.4507 65.7391 14.096 65.4637 13.648 65.2771C13.2 65.0811 12.6913 64.9831 12.122 64.9831C11.562 64.9831 11.058 65.0811 10.61 65.2771C10.162 65.4637 9.812 65.7391 9.56 66.1031C9.29867 66.4577 9.168 66.8731 9.168 67.3491Z" fill="#878B97" fill-opacity="0.5"/>
<path fill-rule="evenodd" clip-rule="evenodd" d="M10.5 31.5C10.2239 31.5 10 31.2761 10 31L10 0.5C10 0.223858 10.2239 0 10.5 0C10.7761 0 11 0.223858 11 0.5L11 31C11 31.2761 10.7761 31.5 10.5 31.5Z" fill="#878B97" fill-opacity="0.5"/>
<path fill-rule="evenodd" clip-rule="evenodd" d="M3.14645 7.85355C2.95118 7.65829 2.95118 7.34171 3.14645 7.14645L10.1464 0.146447C10.3417 -0.0488157 10.6583 -0.0488157 10.8536 0.146447L17.8536 7.14645C18.0488 7.34171 18.0488 7.65829 17.8536 7.85355C17.6583 8.04882 17.3417 8.04882 17.1464 7.85355L10.5 1.20711L3.85355 7.85355C3.65829 8.04882 3.34171 8.04882 3.14645 7.85355Z" fill="#878B97" fill-opacity="0.5"/>
</svg>
